{
    "asset" : {
        "generator" : "Khronos glTF Blender I/O v1.4.40",
        "version" : "2.0"
    },
    "scene" : 0,
    "scenes" : [
        {
            "name" : "Scene",
            "nodes" : [
                0,
                1,
                2,
                3
            ]
        }
    ],
    "nodes" : [
        {
            "name" : "Light",
            "rotation" : [
                0.16907575726509094,
                0.7558803558349609,
                -0.27217137813568115,
                0.570947527885437
            ],
            "translation" : [
                4.076245307922363,
                5.903861999511719,
                -1.0054539442062378
            ]
        },
        {
            "name" : "Camera",
            "rotation" : [
                0.483536034822464,
                0.33687159419059753,
                -0.20870360732078552,
                0.7804827094078064
            ],
            "translation" : [
                7.358891487121582,
                4.958309173583984,
                6.925790786743164
            ]
        },
        {
            "mesh" : 0,
            "name" : "dddancescreen",
            "rotation" : [
                0.7012987732887268,
                -0.09044430404901505,
                -0.09044428914785385,
                0.7012986540794373
            ],
            "scale" : [
                0.0062830280512571335,
                0.0062830280512571335,
                0.0062830280512571335
            ],
            "translation" : [
                -0.7715108394622803,
                0.6928759813308716,
                0.21064043045043945
            ]
        },
        {
            "mesh" : 1,
            "name" : "arcade",
            "rotation" : [
                0.4999999701976776,
                -0.5,
                0.5000001192092896,
                0.49999988079071045
            ],
            "scale" : [
                0.006997448857873678,
                0.006997448857873678,
                0.006997448857873678
            ],
            "translation" : [
                -2.683232069015503,
                0.002518296707421541,
                0.030676458030939102
            ]
        }
    ],
    "materials" : [
        {
            "doubleSided" : true,
            "name" : "M_dddancescreen.001",
            "pbrMetallicRoughness" : {
                "baseColorTexture" : {
                    "index" : 0,
                    "texCoord" : 0
                },
                "metallicFactor" : 0,
                "roughnessFactor" : 0.5527864098548889
            }
        },
        {
            "doubleSided" : true,
            "name" : "Material_0.001",
            "pbrMetallicRoughness" : {
                "baseColorTexture" : {
                    "index" : 1,
                    "texCoord" : 0
                },
                "metallicFactor" : 0,
                "roughnessFactor" : 0.4000000059604645
            }
        }
    ],
    "meshes" : [
        {
            "name" : "Mesh.006",
            "primitives" : [
                {
                    "attributes" : {
                        "POSITION" : 0,
                        "NORMAL" : 1,
                        "TEXCOORD_0" : 2
                    },
                    "indices" : 3,
                    "material" : 0
                }
            ]
        },
        {
            "name" : "Mesh.007",
            "primitives" : [
                {
                    "attributes" : {
                        "POSITION" : 4,
                        "NORMAL" : 5,
                        "TEXCOORD_0" : 6,
                        "TEXCOORD_1" : 7,
                        "TEXCOORD_2" : 8
                    },
                    "indices" : 9,
                    "material" : 1
                }
            ]
        }
    ],
    "textures" : [
        {
            "sampler" : 0,
            "source" : 0
        },
        {
            "sampler" : 0,
            "source" : 1
        }
    ],
    "images" : [
        {
            "mimeType" : "image/png",
            "name" : "download",
            "uri" : "textures/download.png"
        },
        {
            "mimeType" : "image/png",
            "name" : "Material_0_diffuse",
            "uri" : "textures/Material_0_diffuse.png"
        }
    ],
    "accessors" : [
        {
            "bufferView" : 0,
            "componentType" : 5126,
            "count" : 4,
            "max" : [
                0.752763569355011,
                55.71018981933594,
                -174.97598266601562
            ],
            "min" : [
                0.752763569355011,
                -112.77935791015625,
                -301.3431396484375
            ],
            "type" : "VEC3"
        },
        {
            "bufferView" : 1,
            "componentType" : 5126,
            "count" : 4,
            "type" : "VEC3"
        },
        {
            "bufferView" : 2,
            "componentType" : 5126,
            "count" : 4,
            "type" : "VEC2"
        },
        {
            "bufferView" : 3,
            "componentType" : 5123,
            "count" : 6,
            "type" : "SCALAR"
        },
        {
            "bufferView" : 4,
            "componentType" : 5126,
            "count" : 4479,
            "max" : [
                107.76213836669922,
                -182.01419067382812,
                3.0517578125e-05
            ],
            "min" : [
                -107.76213836669922,
                -494.4136047363281,
                -461.0335693359375
            ],
            "type" : "VEC3"
        },
        {
            "bufferView" : 5,
            "componentType" : 5126,
            "count" : 4479,
            "type" : "VEC3"
        },
        {
            "bufferView" : 6,
            "componentType" : 5126,
            "count" : 4479,
            "type" : "VEC2"
        },
        {
            "bufferView" : 7,
            "componentType" : 5126,
            "count" : 4479,
            "type" : "VEC2"
        },
        {
            "bufferView" : 8,
            "componentType" : 5126,
            "count" : 4479,
            "type" : "VEC2"
        },
        {
            "bufferView" : 9,
            "componentType" : 5123,
            "count" : 4536,
            "type" : "SCALAR"
        }
    ],
    "bufferViews" : [
        {
            "buffer" : 0,
            "byteLength" : 48,
            "byteOffset" : 0
        },
        {
            "buffer" : 0,
            "byteLength" : 48,
            "byteOffset" : 48
        },
        {
            "buffer" : 0,
            "byteLength" : 32,
            "byteOffset" : 96
        },
        {
            "buffer" : 0,
            "byteLength" : 12,
            "byteOffset" : 128
        },
        {
            "buffer" : 0,
            "byteLength" : 53748,
            "byteOffset" : 140
        },
        {
            "buffer" : 0,
            "byteLength" : 53748,
            "byteOffset" : 53888
        },
        {
            "buffer" : 0,
            "byteLength" : 35832,
            "byteOffset" : 107636
        },
        {
            "buffer" : 0,
            "byteLength" : 35832,
            "byteOffset" : 143468
        },
        {
            "buffer" : 0,
            "byteLength" : 35832,
            "byteOffset" : 179300
        },
        {
            "buffer" : 0,
            "byteLength" : 9072,
            "byteOffset" : 215132
        }
    ],
    "samplers" : [
        {
            "magFilter" : 9729,
            "minFilter" : 9986
        }
    ],
    "buffers" : [
        {
            "byteLength" : 224204,
            "uri" : "arcade.bin"
        }
    ]
}
