{
    "asset" : {
        "generator" : "Khronos glTF Blender I/O v1.4.40",
        "version" : "2.0"
    },
    "scene" : 0,
    "scenes" : [
        {
            "name" : "Scene",
            "nodes" : [
                0
            ]
        }
    ],
    "nodes" : [
        {
            "mesh" : 0,
            "name" : "pCylinder13_lambert3_0",
            "translation" : [
                0.04603972285985947,
                -0.03283391892910004,
                -0.14464297890663147
            ]
        }
    ],
    "materials" : [
        {
            "doubleSided" : true,
            "emissiveFactor" : [
                1,
                1,
                1
            ],
            "emissiveTexture" : {
                "index" : 0,
                "texCoord" : 0
            },
            "name" : "lambert3",
            "pbrMetallicRoughness" : {
                "baseColorTexture" : {
                    "index" : 1,
                    "texCoord" : 0
                },
                "metallicFactor" : 0.11075758188962936,
                "roughnessFactor" : 0.4043939411640167
            }
        }
    ],
    "meshes" : [
        {
            "name" : "pCylinder13_lambert3_0",
            "primitives" : [
                {
                    "attributes" : {
                        "POSITION" : 0,
                        "NORMAL" : 1,
                        "TEXCOORD_0" : 2
                    },
                    "indices" : 3,
                    "material" : 0
                }
            ]
        }
    ],
    "textures" : [
        {
            "sampler" : 0,
            "source" : 0
        },
        {
            "sampler" : 0,
            "source" : 1
        }
    ],
    "images" : [
        {
            "mimeType" : "image/png",
            "name" : "lambert3_emissive",
            "uri" : "lambert3_emissive.png"
        },
        {
            "mimeType" : "image/png",
            "name" : "lambert3_baseColor",
            "uri" : "lambert3_baseColor.png"
        }
    ],
    "accessors" : [
        {
            "bufferView" : 0,
            "componentType" : 5126,
            "count" : 3161,
            "max" : [
                2.731518030166626,
                6.447554111480713,
                1.6322203874588013
            ],
            "min" : [
                -2.731518030166626,
                0.03319936990737915,
                -3.3795604705810547
            ],
            "type" : "VEC3"
        },
        {
            "bufferView" : 1,
            "componentType" : 5126,
            "count" : 3161,
            "type" : "VEC3"
        },
        {
            "bufferView" : 2,
            "componentType" : 5126,
            "count" : 3161,
            "type" : "VEC2"
        },
        {
            "bufferView" : 3,
            "componentType" : 5123,
            "count" : 4944,
            "type" : "SCALAR"
        }
    ],
    "bufferViews" : [
        {
            "buffer" : 0,
            "byteLength" : 37932,
            "byteOffset" : 0
        },
        {
            "buffer" : 0,
            "byteLength" : 37932,
            "byteOffset" : 37932
        },
        {
            "buffer" : 0,
            "byteLength" : 25288,
            "byteOffset" : 75864
        },
        {
            "buffer" : 0,
            "byteLength" : 9888,
            "byteOffset" : 101152
        }
    ],
    "samplers" : [
        {
            "magFilter" : 9729,
            "minFilter" : 9986
        }
    ],
    "buffers" : [
        {
            "byteLength" : 111040,
            "uri" : "scene.bin"
        }
    ]
}
