{
    "asset" : {
        "generator" : "Khronos glTF Blender I/O v1.4.40",
        "version" : "2.0"
    },
    "scene" : 0,
    "scenes" : [
        {
            "name" : "Scene",
            "nodes" : [
                0,
                1,
                2,
                3,
                4,
                5,
                6,
                7
            ]
        }
    ],
    "nodes" : [
        {
            "mesh" : 0,
            "name" : "Mesh_0.001",
            "rotation" : [
                0.7071068286895752,
                0,
                0,
                0.7071067094802856
            ],
            "scale" : [
                0.009999999776482582,
                0.009999999776482582,
                0.009999999776482582
            ]
        },
        {
            "mesh" : 1,
            "name" : "Mesh_2",
            "rotation" : [
                0.7071068286895752,
                0,
                0,
                0.7071067094802856
            ],
            "scale" : [
                0.009999999776482582,
                0.009999999776482582,
                0.009999999776482582
            ]
        },
        {
            "mesh" : 2,
            "name" : "Mesh_3",
            "rotation" : [
                0.7071068286895752,
                0,
                0,
                0.7071067094802856
            ],
            "scale" : [
                0.009999999776482582,
                0.009999999776482582,
                0.009999999776482582
            ]
        },
        {
            "mesh" : 3,
            "name" : "Mesh_4",
            "rotation" : [
                0.7071068286895752,
                0,
                0,
                0.7071067094802856
            ],
            "scale" : [
                0.009999999776482582,
                0.009999999776482582,
                0.009999999776482582
            ]
        },
        {
            "mesh" : 4,
            "name" : "Mesh_5",
            "rotation" : [
                0.7071068286895752,
                0,
                0,
                0.7071067094802856
            ],
            "scale" : [
                0.009999999776482582,
                0.009999999776482582,
                0.009999999776482582
            ]
        },
        {
            "mesh" : 5,
            "name" : "dddancescreen",
            "rotation" : [
                0.7071068286895752,
                0,
                0,
                0.7071067094802856
            ],
            "scale" : [
                0.009999999776482582,
                0.009999999776482582,
                0.009999999776482582
            ]
        },
        {
            "name" : "Light",
            "rotation" : [
                0.16907575726509094,
                0.7558803558349609,
                -0.27217137813568115,
                0.570947527885437
            ],
            "translation" : [
                4.076245307922363,
                5.903861999511719,
                -1.0054539442062378
            ]
        },
        {
            "name" : "Camera",
            "rotation" : [
                0.483536034822464,
                0.33687159419059753,
                -0.20870360732078552,
                0.7804827094078064
            ],
            "translation" : [
                7.358891487121582,
                4.958309173583984,
                6.925790786743164
            ]
        }
    ],
    "materials" : [
        {
            "doubleSided" : true,
            "name" : "default1",
            "pbrMetallicRoughness" : {
                "baseColorTexture" : {
                    "index" : 0,
                    "texCoord" : 0
                },
                "metallicFactor" : 0,
                "roughnessFactor" : 0.5
            }
        },
        {
            "doubleSided" : true,
            "name" : "default3",
            "pbrMetallicRoughness" : {
                "baseColorTexture" : {
                    "index" : 1,
                    "texCoord" : 0
                },
                "metallicFactor" : 0,
                "roughnessFactor" : 0.5
            }
        },
        {
            "doubleSided" : true,
            "name" : "default4",
            "pbrMetallicRoughness" : {
                "baseColorTexture" : {
                    "index" : 2,
                    "texCoord" : 0
                },
                "metallicFactor" : 0,
                "roughnessFactor" : 0.5
            }
        },
        {
            "doubleSided" : true,
            "name" : "default5",
            "pbrMetallicRoughness" : {
                "baseColorTexture" : {
                    "index" : 3,
                    "texCoord" : 0
                },
                "metallicFactor" : 0,
                "roughnessFactor" : 0.5
            }
        },
        {
            "doubleSided" : true,
            "name" : "default6",
            "pbrMetallicRoughness" : {
                "baseColorTexture" : {
                    "index" : 4,
                    "texCoord" : 0
                },
                "metallicFactor" : 0,
                "roughnessFactor" : 0.5
            }
        },
        {
            "doubleSided" : true,
            "name" : "M_dddancescreen",
            "pbrMetallicRoughness" : {
                "baseColorTexture" : {
                    "index" : 5,
                    "texCoord" : 0
                },
                "roughnessFactor" : 0.5527864098548889
            }
        }
    ],
    "meshes" : [
        {
            "name" : "Mesh",
            "primitives" : [
                {
                    "attributes" : {
                        "POSITION" : 0,
                        "NORMAL" : 1,
                        "TEXCOORD_0" : 2
                    },
                    "indices" : 3,
                    "material" : 0
                }
            ]
        },
        {
            "name" : "Mesh.001",
            "primitives" : [
                {
                    "attributes" : {
                        "POSITION" : 4,
                        "NORMAL" : 5,
                        "TEXCOORD_0" : 6
                    },
                    "indices" : 7,
                    "material" : 1
                }
            ]
        },
        {
            "name" : "Mesh.002",
            "primitives" : [
                {
                    "attributes" : {
                        "POSITION" : 8,
                        "NORMAL" : 9,
                        "TEXCOORD_0" : 10
                    },
                    "indices" : 11,
                    "material" : 2
                }
            ]
        },
        {
            "name" : "Mesh.003",
            "primitives" : [
                {
                    "attributes" : {
                        "POSITION" : 12,
                        "NORMAL" : 13,
                        "TEXCOORD_0" : 14
                    },
                    "indices" : 15,
                    "material" : 3
                }
            ]
        },
        {
            "name" : "Mesh.004",
            "primitives" : [
                {
                    "attributes" : {
                        "POSITION" : 16,
                        "NORMAL" : 17,
                        "TEXCOORD_0" : 18
                    },
                    "indices" : 19,
                    "material" : 4
                }
            ]
        },
        {
            "name" : "Mesh.005",
            "primitives" : [
                {
                    "attributes" : {
                        "POSITION" : 20,
                        "NORMAL" : 21,
                        "TEXCOORD_0" : 22
                    },
                    "indices" : 23,
                    "material" : 5
                }
            ]
        }
    ],
    "textures" : [
        {
            "sampler" : 0,
            "source" : 0
        },
        {
            "sampler" : 0,
            "source" : 1
        },
        {
            "sampler" : 0,
            "source" : 2
        },
        {
            "sampler" : 0,
            "source" : 3
        },
        {
            "sampler" : 0,
            "source" : 4
        },
        {
            "sampler" : 0,
            "source" : 5
        }
    ],
    "images" : [
        {
            "mimeType" : "image/png",
            "name" : "default_baseColor",
            "uri" : "textures/default_baseColor.png"
        },
        {
            "mimeType" : "image/png",
            "name" : "default2_baseColor",
            "uri" : "textures/default2_baseColor.png"
        },
        {
            "mimeType" : "image/png",
            "name" : "default3_baseColor",
            "uri" : "textures/default3_baseColor.png"
        },
        {
            "mimeType" : "image/png",
            "name" : "default4_baseColor",
            "uri" : "textures/default4_baseColor.png"
        },
        {
            "mimeType" : "image/png",
            "name" : "default5_baseColor",
            "uri" : "textures/default5_baseColor.png"
        },
        {
            "mimeType" : "image/png",
            "name" : "download",
            "uri" : "textures/download.png"
        }
    ],
    "accessors" : [
        {
            "bufferView" : 0,
            "componentType" : 5126,
            "count" : 953,
            "max" : [
                120.5357894897461,
                113.85272979736328,
                -163.0244903564453
            ],
            "min" : [
                60.82947540283203,
                -123.12016296386719,
                -317.8581848144531
            ],
            "type" : "VEC3"
        },
        {
            "bufferView" : 1,
            "componentType" : 5126,
            "count" : 953,
            "type" : "VEC3"
        },
        {
            "bufferView" : 2,
            "componentType" : 5126,
            "count" : 953,
            "type" : "VEC2"
        },
        {
            "bufferView" : 3,
            "componentType" : 5123,
            "count" : 960,
            "type" : "SCALAR"
        },
        {
            "bufferView" : 4,
            "componentType" : 5126,
            "count" : 708,
            "max" : [
                5.581238746643066,
                117.78305053710938,
                -159.38851928710938
            ],
            "min" : [
                -1.7167930603027344,
                -127.18121337890625,
                -315.4241943359375
            ],
            "type" : "VEC3"
        },
        {
            "bufferView" : 5,
            "componentType" : 5126,
            "count" : 708,
            "type" : "VEC3"
        },
        {
            "bufferView" : 6,
            "componentType" : 5126,
            "count" : 708,
            "type" : "VEC2"
        },
        {
            "bufferView" : 7,
            "componentType" : 5123,
            "count" : 708,
            "type" : "SCALAR"
        },
        {
            "bufferView" : 8,
            "componentType" : 5126,
            "count" : 2126,
            "max" : [
                69.62422180175781,
                103.76678466796875,
                -176.74237060546875
            ],
            "min" : [
                -3.026156425476074,
                -114.55419158935547,
                -382.45745849609375
            ],
            "type" : "VEC3"
        },
        {
            "bufferView" : 9,
            "componentType" : 5126,
            "count" : 2126,
            "type" : "VEC3"
        },
        {
            "bufferView" : 10,
            "componentType" : 5126,
            "count" : 2126,
            "type" : "VEC2"
        },
        {
            "bufferView" : 11,
            "componentType" : 5123,
            "count" : 2136,
            "type" : "SCALAR"
        },
        {
            "bufferView" : 12,
            "componentType" : 5126,
            "count" : 1020,
            "max" : [
                74.04634094238281,
                93.47293853759766,
                -14.6077880859375
            ],
            "min" : [
                1.8981285095214844,
                -93.40794372558594,
                -160.7767333984375
            ],
            "type" : "VEC3"
        },
        {
            "bufferView" : 13,
            "componentType" : 5126,
            "count" : 1020,
            "type" : "VEC3"
        },
        {
            "bufferView" : 14,
            "componentType" : 5126,
            "count" : 1020,
            "type" : "VEC2"
        },
        {
            "bufferView" : 15,
            "componentType" : 5123,
            "count" : 1020,
            "type" : "SCALAR"
        },
        {
            "bufferView" : 16,
            "componentType" : 5126,
            "count" : 270,
            "max" : [
                75.34575653076172,
                116.20135498046875,
                -160.66749572753906
            ],
            "min" : [
                -0.13953781127929688,
                -125.53373718261719,
                -314.14520263671875
            ],
            "type" : "VEC3"
        },
        {
            "bufferView" : 17,
            "componentType" : 5126,
            "count" : 270,
            "type" : "VEC3"
        },
        {
            "bufferView" : 18,
            "componentType" : 5126,
            "count" : 270,
            "type" : "VEC2"
        },
        {
            "bufferView" : 19,
            "componentType" : 5123,
            "count" : 270,
            "type" : "SCALAR"
        },
        {
            "bufferView" : 20,
            "componentType" : 5126,
            "count" : 4,
            "max" : [
                0.752763569355011,
                55.71018981933594,
                -174.97598266601562
            ],
            "min" : [
                0.752763569355011,
                -112.77935791015625,
                -301.3431396484375
            ],
            "type" : "VEC3"
        },
        {
            "bufferView" : 21,
            "componentType" : 5126,
            "count" : 4,
            "type" : "VEC3"
        },
        {
            "bufferView" : 22,
            "componentType" : 5126,
            "count" : 4,
            "type" : "VEC2"
        },
        {
            "bufferView" : 23,
            "componentType" : 5123,
            "count" : 6,
            "type" : "SCALAR"
        }
    ],
    "bufferViews" : [
        {
            "buffer" : 0,
            "byteLength" : 11436,
            "byteOffset" : 0
        },
        {
            "buffer" : 0,
            "byteLength" : 11436,
            "byteOffset" : 11436
        },
        {
            "buffer" : 0,
            "byteLength" : 7624,
            "byteOffset" : 22872
        },
        {
            "buffer" : 0,
            "byteLength" : 1920,
            "byteOffset" : 30496
        },
        {
            "buffer" : 0,
            "byteLength" : 8496,
            "byteOffset" : 32416
        },
        {
            "buffer" : 0,
            "byteLength" : 8496,
            "byteOffset" : 40912
        },
        {
            "buffer" : 0,
            "byteLength" : 5664,
            "byteOffset" : 49408
        },
        {
            "buffer" : 0,
            "byteLength" : 1416,
            "byteOffset" : 55072
        },
        {
            "buffer" : 0,
            "byteLength" : 25512,
            "byteOffset" : 56488
        },
        {
            "buffer" : 0,
            "byteLength" : 25512,
            "byteOffset" : 82000
        },
        {
            "buffer" : 0,
            "byteLength" : 17008,
            "byteOffset" : 107512
        },
        {
            "buffer" : 0,
            "byteLength" : 4272,
            "byteOffset" : 124520
        },
        {
            "buffer" : 0,
            "byteLength" : 12240,
            "byteOffset" : 128792
        },
        {
            "buffer" : 0,
            "byteLength" : 12240,
            "byteOffset" : 141032
        },
        {
            "buffer" : 0,
            "byteLength" : 8160,
            "byteOffset" : 153272
        },
        {
            "buffer" : 0,
            "byteLength" : 2040,
            "byteOffset" : 161432
        },
        {
            "buffer" : 0,
            "byteLength" : 3240,
            "byteOffset" : 163472
        },
        {
            "buffer" : 0,
            "byteLength" : 3240,
            "byteOffset" : 166712
        },
        {
            "buffer" : 0,
            "byteLength" : 2160,
            "byteOffset" : 169952
        },
        {
            "buffer" : 0,
            "byteLength" : 540,
            "byteOffset" : 172112
        },
        {
            "buffer" : 0,
            "byteLength" : 48,
            "byteOffset" : 172652
        },
        {
            "buffer" : 0,
            "byteLength" : 48,
            "byteOffset" : 172700
        },
        {
            "buffer" : 0,
            "byteLength" : 32,
            "byteOffset" : 172748
        },
        {
            "buffer" : 0,
            "byteLength" : 12,
            "byteOffset" : 172780
        }
    ],
    "samplers" : [
        {
            "magFilter" : 9729,
            "minFilter" : 9986
        }
    ],
    "buffers" : [
        {
            "byteLength" : 172792,
            "uri" : "oldtv.bin"
        }
    ]
}
