{
    "asset" : {
        "generator" : "Khronos glTF Blender I/O v1.4.40",
        "version" : "2.0"
    },
    "scene" : 0,
    "scenes" : [
        {
            "name" : "Scene",
            "nodes" : [
                0,
                1,
                2
            ]
        }
    ],
    "nodes" : [
        {
            "name" : "Light",
            "rotation" : [
                0.16907575726509094,
                0.7558803558349609,
                -0.27217137813568115,
                0.570947527885437
            ],
            "translation" : [
                4.076245307922363,
                5.903861999511719,
                -1.0054539442062378
            ]
        },
        {
            "name" : "Camera",
            "rotation" : [
                0.483536034822464,
                0.33687159419059753,
                -0.20870360732078552,
                0.7804827094078064
            ],
            "translation" : [
                7.358891487121582,
                4.958309173583984,
                6.925790786743164
            ]
        },
        {
            "mesh" : 0,
            "name" : "Mesh_0",
            "rotation" : [
                -0.7675834894180298,
                0,
                -0.640949010848999,
                3.601425362376176e-07
            ],
            "scale" : [
                0.22134453058242798,
                0.22134454548358917,
                0.22134454548358917
            ]
        }
    ],
    "materials" : [
        {
            "doubleSided" : true,
            "name" : "apollo",
            "pbrMetallicRoughness" : {
                "baseColorTexture" : {
                    "index" : 0,
                    "texCoord" : 0
                },
                "metallicFactor" : 0,
                "roughnessFactor" : 0.5
            }
        }
    ],
    "meshes" : [
        {
            "name" : "Mesh.001",
            "primitives" : [
                {
                    "attributes" : {
                        "POSITION" : 0,
                        "NORMAL" : 1,
                        "TEXCOORD_0" : 2
                    },
                    "indices" : 3,
                    "material" : 0
                }
            ]
        }
    ],
    "textures" : [
        {
            "sampler" : 0,
            "source" : 0
        }
    ],
    "images" : [
        {
            "mimeType" : "image/png",
            "name" : "matrix wallpaper 041 - 1920x1080-768x432",
            "uri" : "textures/1024rb.jpg"
        }
    ],
    "accessors" : [
        {
            "bufferView" : 0,
            "componentType" : 5126,
            "count" : 45015,
            "max" : [
                11.01517391204834,
                -0.07666657119989395,
                6.648097991943359
            ],
            "min" : [
                -6.03745698928833,
                -26.097171783447266,
                -6.401876449584961
            ],
            "type" : "VEC3"
        },
        {
            "bufferView" : 1,
            "componentType" : 5126,
            "count" : 45015,
            "type" : "VEC3"
        },
        {
            "bufferView" : 2,
            "componentType" : 5126,
            "count" : 45015,
            "type" : "VEC2"
        },
        {
            "bufferView" : 3,
            "componentType" : 5123,
            "count" : 45015,
            "type" : "SCALAR"
        }
    ],
    "bufferViews" : [
        {
            "buffer" : 0,
            "byteLength" : 540180,
            "byteOffset" : 0
        },
        {
            "buffer" : 0,
            "byteLength" : 540180,
            "byteOffset" : 540180
        },
        {
            "buffer" : 0,
            "byteLength" : 360120,
            "byteOffset" : 1080360
        },
        {
            "buffer" : 0,
            "byteLength" : 90030,
            "byteOffset" : 1440480
        }
    ],
    "samplers" : [
        {
            "magFilter" : 9729,
            "minFilter" : 9986
        }
    ],
    "buffers" : [
        {
            "byteLength" : 1530512,
            "uri" : "apollo.bin"
        }
    ]
}
