{
    "asset" : {
        "generator" : "Khronos glTF Blender I/O v1.4.40",
        "version" : "2.0"
    },
    "scene" : 0,
    "scenes" : [
        {
            "name" : "Scene",
            "nodes" : [
                0,
                1,
                2
            ]
        }
    ],
    "nodes" : [
        {
            "mesh" : 0,
            "name" : "bull_low_0",
            "rotation" : [
                -0.7059839963912964,
                0,
                0,
                0.708227813243866
            ],
            "scale" : [
                0.1363050937652588,
                0.1363050937652588,
                0.1363050937652588
            ],
            "translation" : [
                0,
                0,
                1.3717875480651855
            ]
        },
        {
            "name" : "Light",
            "rotation" : [
                0.16907575726509094,
                0.7558803558349609,
                -0.27217137813568115,
                0.570947527885437
            ],
            "translation" : [
                4.076245307922363,
                5.903861999511719,
                -1.0054539442062378
            ]
        },
        {
            "name" : "Camera",
            "rotation" : [
                0.483536034822464,
                0.33687159419059753,
                -0.20870360732078552,
                0.7804827094078064
            ],
            "translation" : [
                7.358891487121582,
                4.958309173583984,
                6.925790786743164
            ]
        }
    ],
    "materials" : [
        {
            "name" : "bull_low",
            "occlusionTexture" : {
                "index" : 0,
                "texCoord" : 0
            },
            "pbrMetallicRoughness" : {
                "baseColorFactor" : [
                    0.8427672982215881,
                    0.8427672982215881,
                    0.8427672982215881,
                    1
                ],
                "baseColorTexture" : {
                    "index" : 1,
                    "texCoord" : 0
                },
                "metallicRoughnessTexture" : {
                    "index" : 0,
                    "texCoord" : 0
                }
            }
        }
    ],
    "meshes" : [
        {
            "name" : "bull_low_0",
            "primitives" : [
                {
                    "attributes" : {
                        "POSITION" : 0,
                        "NORMAL" : 1,
                        "TEXCOORD_0" : 2
                    },
                    "indices" : 3,
                    "material" : 0
                }
            ]
        }
    ],
    "textures" : [
        {
            "sampler" : 0,
            "source" : 0
        },
        {
            "sampler" : 0,
            "source" : 1
        }
    ],
    "images" : [
        {
            "mimeType" : "image/png",
            "name" : "bull_low_metallicRoughness",
            "uri" : "texture/bull_low_metallicRoughness.png"
        },
        {
            "mimeType" : "image/jpeg",
            "name" : "bull_low_baseColor",
            "uri" : "texture/bull_low_baseColor.jpg"
        }
    ],
    "accessors" : [
        {
            "bufferView" : 0,
            "componentType" : 5126,
            "count" : 5640,
            "max" : [
                6.067989826202393,
                18.974409103393555,
                16.868799209594727
            ],
            "min" : [
                -7.470600128173828,
                -9.46697998046875,
                -0.13359999656677246
            ],
            "type" : "VEC3"
        },
        {
            "bufferView" : 1,
            "componentType" : 5126,
            "count" : 5640,
            "type" : "VEC3"
        },
        {
            "bufferView" : 2,
            "componentType" : 5126,
            "count" : 5640,
            "type" : "VEC2"
        },
        {
            "bufferView" : 3,
            "componentType" : 5123,
            "count" : 27504,
            "type" : "SCALAR"
        }
    ],
    "bufferViews" : [
        {
            "buffer" : 0,
            "byteLength" : 67680,
            "byteOffset" : 0
        },
        {
            "buffer" : 0,
            "byteLength" : 67680,
            "byteOffset" : 67680
        },
        {
            "buffer" : 0,
            "byteLength" : 45120,
            "byteOffset" : 135360
        },
        {
            "buffer" : 0,
            "byteLength" : 55008,
            "byteOffset" : 180480
        }
    ],
    "samplers" : [
        {
            "magFilter" : 9729,
            "minFilter" : 9986
        }
    ],
    "buffers" : [
        {
            "byteLength" : 235488,
            "uri" : "bull.bin"
        }
    ]
}
