{
    "asset" : {
        "generator" : "Khronos glTF Blender I/O v1.4.40",
        "version" : "2.0"
    },
    "scene" : 0,
    "scenes" : [
        {
            "name" : "Scene",
            "nodes" : [
                0,
                1,
                2,
                3,
                4,
                5
            ]
        }
    ],
    "nodes" : [
        {
            "mesh" : 0,
            "name" : "polySurface4",
            "rotation" : [
                0.6893973350524902,
                0.157261922955513,
                -0.157261922955513,
                0.6893973350524902
            ],
            "scale" : [
                0.11037018895149231,
                0.11037018895149231,
                0.1103702113032341
            ],
            "translation" : [
                -1.49419105052948,
                0,
                0
            ]
        },
        {
            "mesh" : 1,
            "name" : "polySurface3",
            "rotation" : [
                0.6893973350524902,
                0.157261922955513,
                -0.157261922955513,
                0.6893973350524902
            ],
            "scale" : [
                0.11037018895149231,
                0.11037018895149231,
                0.1103702113032341
            ],
            "translation" : [
                -1.49419105052948,
                0,
                0
            ]
        },
        {
            "mesh" : 2,
            "name" : "polySurface1",
            "rotation" : [
                0.6893973350524902,
                0.157261922955513,
                -0.157261922955513,
                0.6893973350524902
            ],
            "scale" : [
                0.23249049484729767,
                0.19557662308216095,
                0.23249049484729767
            ],
            "translation" : [
                -1.49419105052948,
                0,
                0
            ]
        },
        {
            "mesh" : 3,
            "name" : "Circle_Carpet",
            "rotation" : [
                0.7071068286895752,
                0,
                0,
                0.7071067094802856
            ],
            "scale" : [
                1.123453974723816,
                1.123453974723816,
                0.883549690246582
            ],
            "translation" : [
                -1.49419105052948,
                0,
                0
            ]
        },
        {
            "name" : "Light",
            "rotation" : [
                0.16907575726509094,
                0.7558803558349609,
                -0.27217137813568115,
                0.570947527885437
            ],
            "translation" : [
                4.076245307922363,
                5.560914993286133,
                -1.0054539442062378
            ]
        },
        {
            "name" : "Camera",
            "rotation" : [
                0.483536034822464,
                0.33687159419059753,
                -0.20870360732078552,
                0.7804827094078064
            ],
            "translation" : [
                7.358891487121582,
                4.958309173583984,
                6.925790786743164
            ]
        }
    ],
    "materials" : [
        {
            "doubleSided" : true,
            "name" : "M_Ted.001",
            "pbrMetallicRoughness" : {
                "baseColorTexture" : {
                    "index" : 0,
                    "texCoord" : 0
                },
                "metallicFactor" : 0,
                "roughnessFactor" : 0.5527864098548889
            }
        }
    ],
    "meshes" : [
        {
            "name" : "Mesh.077",
            "primitives" : [
                {
                    "attributes" : {
                        "POSITION" : 0,
                        "NORMAL" : 1,
                        "TEXCOORD_0" : 2
                    },
                    "indices" : 3,
                    "material" : 0
                }
            ]
        },
        {
            "name" : "Mesh.078",
            "primitives" : [
                {
                    "attributes" : {
                        "POSITION" : 4,
                        "NORMAL" : 5,
                        "TEXCOORD_0" : 6
                    },
                    "indices" : 7,
                    "material" : 0
                }
            ]
        },
        {
            "name" : "Mesh.079",
            "primitives" : [
                {
                    "attributes" : {
                        "POSITION" : 8,
                        "NORMAL" : 9,
                        "TEXCOORD_0" : 10
                    },
                    "indices" : 11,
                    "material" : 0
                }
            ]
        },
        {
            "name" : "Mesh.080",
            "primitives" : [
                {
                    "attributes" : {
                        "POSITION" : 12,
                        "NORMAL" : 13,
                        "TEXCOORD_0" : 14
                    },
                    "indices" : 15,
                    "material" : 0
                }
            ]
        }
    ],
    "textures" : [
        {
            "sampler" : 0,
            "source" : 0
        }
    ],
    "images" : [
        {
            "mimeType" : "image/png",
            "name" : "M-TedTalk",
            "uri" : "textures/M-TedTalk.png"
        }
    ],
    "accessors" : [
        {
            "bufferView" : 0,
            "componentType" : 5126,
            "count" : 123,
            "max" : [
                18.93918800354004,
                -2.1853878498077393,
                0.27202823758125305
            ],
            "min" : [
                9.40941047668457,
                -4.685388088226318,
                -10.500999450683594
            ],
            "type" : "VEC3"
        },
        {
            "bufferView" : 1,
            "componentType" : 5126,
            "count" : 123,
            "type" : "VEC3"
        },
        {
            "bufferView" : 2,
            "componentType" : 5126,
            "count" : 123,
            "type" : "VEC2"
        },
        {
            "bufferView" : 3,
            "componentType" : 5123,
            "count" : 180,
            "type" : "SCALAR"
        },
        {
            "bufferView" : 4,
            "componentType" : 5126,
            "count" : 69,
            "max" : [
                9.033842086791992,
                -2.1853883266448975,
                0.27202823758125305
            ],
            "min" : [
                -0.4704579710960388,
                -4.685388565063477,
                -10.500999450683594
            ],
            "type" : "VEC3"
        },
        {
            "bufferView" : 5,
            "componentType" : 5126,
            "count" : 69,
            "type" : "VEC3"
        },
        {
            "bufferView" : 6,
            "componentType" : 5126,
            "count" : 69,
            "type" : "VEC2"
        },
        {
            "bufferView" : 7,
            "componentType" : 5123,
            "count" : 108,
            "type" : "SCALAR"
        },
        {
            "bufferView" : 8,
            "componentType" : 5126,
            "count" : 328,
            "max" : [
                14.13858413696289,
                -1.2231556177139282,
                0.09188652038574219
            ],
            "min" : [
                9.169876098632812,
                -2.6004385948181152,
                -5.023832321166992
            ],
            "type" : "VEC3"
        },
        {
            "bufferView" : 9,
            "componentType" : 5126,
            "count" : 328,
            "type" : "VEC3"
        },
        {
            "bufferView" : 10,
            "componentType" : 5126,
            "count" : 328,
            "type" : "VEC2"
        },
        {
            "bufferView" : 11,
            "componentType" : 5123,
            "count" : 468,
            "type" : "SCALAR"
        },
        {
            "bufferView" : 12,
            "componentType" : 5126,
            "count" : 62,
            "max" : [
                3.062528133392334,
                1.522949457168579,
                -0.035713255405426025
            ],
            "min" : [
                1.0625274181365967,
                -0.46609532833099365,
                -0.035713255405426025
            ],
            "type" : "VEC3"
        },
        {
            "bufferView" : 13,
            "componentType" : 5126,
            "count" : 62,
            "type" : "VEC3"
        },
        {
            "bufferView" : 14,
            "componentType" : 5126,
            "count" : 62,
            "type" : "VEC2"
        },
        {
            "bufferView" : 15,
            "componentType" : 5123,
            "count" : 90,
            "type" : "SCALAR"
        }
    ],
    "bufferViews" : [
        {
            "buffer" : 0,
            "byteLength" : 1476,
            "byteOffset" : 0
        },
        {
            "buffer" : 0,
            "byteLength" : 1476,
            "byteOffset" : 1476
        },
        {
            "buffer" : 0,
            "byteLength" : 984,
            "byteOffset" : 2952
        },
        {
            "buffer" : 0,
            "byteLength" : 360,
            "byteOffset" : 3936
        },
        {
            "buffer" : 0,
            "byteLength" : 828,
            "byteOffset" : 4296
        },
        {
            "buffer" : 0,
            "byteLength" : 828,
            "byteOffset" : 5124
        },
        {
            "buffer" : 0,
            "byteLength" : 552,
            "byteOffset" : 5952
        },
        {
            "buffer" : 0,
            "byteLength" : 216,
            "byteOffset" : 6504
        },
        {
            "buffer" : 0,
            "byteLength" : 3936,
            "byteOffset" : 6720
        },
        {
            "buffer" : 0,
            "byteLength" : 3936,
            "byteOffset" : 10656
        },
        {
            "buffer" : 0,
            "byteLength" : 2624,
            "byteOffset" : 14592
        },
        {
            "buffer" : 0,
            "byteLength" : 936,
            "byteOffset" : 17216
        },
        {
            "buffer" : 0,
            "byteLength" : 744,
            "byteOffset" : 18152
        },
        {
            "buffer" : 0,
            "byteLength" : 744,
            "byteOffset" : 18896
        },
        {
            "buffer" : 0,
            "byteLength" : 496,
            "byteOffset" : 19640
        },
        {
            "buffer" : 0,
            "byteLength" : 180,
            "byteOffset" : 20136
        }
    ],
    "samplers" : [
        {
            "magFilter" : 9729,
            "minFilter" : 9986
        }
    ],
    "buffers" : [
        {
            "byteLength" : 20316,
            "uri" : "tedtalk.bin"
        }
    ]
}
