{
    "asset" : {
        "generator" : "Khronos glTF Blender I/O v1.4.40",
        "version" : "2.0"
    },
    "scene" : 0,
    "scenes" : [
        {
            "name" : "Scene",
            "nodes" : [
                0,
                1,
                2,
                3,
                4,
                5
            ]
        }
    ],
    "nodes" : [
        {
            "name" : "Collada visual scene group",
            "rotation" : [
                0.7071068286895752,
                0,
                0,
                0.7071068286895752
            ]
        },
        {
            "mesh" : 0,
            "name" : "defaultMaterial.010",
            "scale" : [
                4.051852226257324,
                4.051852226257324,
                4.051852226257324
            ],
            "translation" : [
                0,
                2.172917604446411,
                0
            ]
        },
        {
            "mesh" : 1,
            "name" : "defaultMaterial.011",
            "scale" : [
                4.051852226257324,
                4.051852226257324,
                4.051852226257324
            ],
            "translation" : [
                0,
                2.172917604446411,
                0
            ]
        },
        {
            "mesh" : 2,
            "name" : "defaultMaterial.012",
            "scale" : [
                4.051852226257324,
                4.051852226257324,
                4.051852226257324
            ],
            "translation" : [
                0,
                2.172917604446411,
                0
            ]
        },
        {
            "name" : "Light",
            "rotation" : [
                0.16907575726509094,
                0.7558803558349609,
                -0.27217137813568115,
                0.570947527885437
            ],
            "translation" : [
                4.076245307922363,
                5.903861999511719,
                -1.0054539442062378
            ]
        },
        {
            "name" : "Camera",
            "rotation" : [
                0.483536034822464,
                0.33687159419059753,
                -0.20870360732078552,
                0.7804827094078064
            ],
            "translation" : [
                7.358891487121582,
                4.958309173583984,
                6.925790786743164
            ]
        }
    ],
    "materials" : [
        {
            "doubleSided" : true,
            "emissiveFactor" : [
                1,
                1,
                1
            ],
            "emissiveTexture" : {
                "index" : 0,
                "texCoord" : 0
            },
            "name" : "1001.001",
            "normalTexture" : {
                "index" : 1,
                "texCoord" : 0
            },
            "occlusionTexture" : {
                "index" : 2,
                "texCoord" : 0
            },
            "pbrMetallicRoughness" : {
                "baseColorTexture" : {
                    "index" : 3,
                    "texCoord" : 0
                },
                "metallicRoughnessTexture" : {
                    "index" : 2,
                    "texCoord" : 0
                }
            }
        }
    ],
    "meshes" : [
        {
            "name" : "defaultMaterial.023",
            "primitives" : [
                {
                    "attributes" : {
                        "POSITION" : 0,
                        "NORMAL" : 1,
                        "TEXCOORD_0" : 2
                    },
                    "indices" : 3,
                    "material" : 0
                }
            ]
        },
        {
            "name" : "defaultMaterial.024",
            "primitives" : [
                {
                    "attributes" : {
                        "POSITION" : 4,
                        "NORMAL" : 5,
                        "TEXCOORD_0" : 6
                    },
                    "indices" : 7,
                    "material" : 0
                }
            ]
        },
        {
            "name" : "defaultMaterial.025",
            "primitives" : [
                {
                    "attributes" : {
                        "POSITION" : 8,
                        "NORMAL" : 9,
                        "TEXCOORD_0" : 10
                    },
                    "indices" : 11,
                    "material" : 0
                }
            ]
        }
    ],
    "textures" : [
        {
            "sampler" : 0,
            "source" : 0
        },
        {
            "sampler" : 0,
            "source" : 1
        },
        {
            "sampler" : 0,
            "source" : 2
        },
        {
            "sampler" : 0,
            "source" : 3
        }
    ],
    "images" : [
        {
            "mimeType" : "image/jpeg",
            "name" : "1001_emissive",
            "uri" : "textures/1001_emissive.jpg"
        },
        {
            "mimeType" : "image/png",
            "name" : "1001_normal",
            "uri" : "textures/1001_normal.png"
        },
        {
            "mimeType" : "image/png",
            "name" : "1001_metallicRoughness",
            "uri" : "textures/1001_metallicRoughness.png"
        },
        {
            "mimeType" : "image/jpeg",
            "name" : "1001_baseColor",
            "uri" : "textures/1001_baseColor.jpg"
        }
    ],
    "accessors" : [
        {
            "bufferView" : 0,
            "componentType" : 5126,
            "count" : 12,
            "max" : [
                0.3846150040626526,
                -0.07692310214042664,
                0.3846150040626526
            ],
            "min" : [
                0.23076899349689484,
                -0.23076899349689484,
                0.23076899349689484
            ],
            "type" : "VEC3"
        },
        {
            "bufferView" : 1,
            "componentType" : 5126,
            "count" : 12,
            "type" : "VEC3"
        },
        {
            "bufferView" : 2,
            "componentType" : 5126,
            "count" : 12,
            "type" : "VEC2"
        },
        {
            "bufferView" : 3,
            "componentType" : 5123,
            "count" : 18,
            "type" : "SCALAR"
        },
        {
            "bufferView" : 4,
            "componentType" : 5126,
            "count" : 750,
            "max" : [
                1,
                0.3846150040626526,
                1
            ],
            "min" : [
                -0.846153974533081,
                -0.5384619832038879,
                -0.846153974533081
            ],
            "type" : "VEC3"
        },
        {
            "bufferView" : 5,
            "componentType" : 5126,
            "count" : 750,
            "type" : "VEC3"
        },
        {
            "bufferView" : 6,
            "componentType" : 5126,
            "count" : 750,
            "type" : "VEC2"
        },
        {
            "bufferView" : 7,
            "componentType" : 5123,
            "count" : 1062,
            "type" : "SCALAR"
        },
        {
            "bufferView" : 8,
            "componentType" : 5126,
            "count" : 422,
            "max" : [
                0.6923080086708069,
                0.5384619832038879,
                0.6923080086708069
            ],
            "min" : [
                -1,
                -0.5384619832038879,
                -1
            ],
            "type" : "VEC3"
        },
        {
            "bufferView" : 9,
            "componentType" : 5126,
            "count" : 422,
            "type" : "VEC3"
        },
        {
            "bufferView" : 10,
            "componentType" : 5126,
            "count" : 422,
            "type" : "VEC2"
        },
        {
            "bufferView" : 11,
            "componentType" : 5123,
            "count" : 606,
            "type" : "SCALAR"
        }
    ],
    "bufferViews" : [
        {
            "buffer" : 0,
            "byteLength" : 144,
            "byteOffset" : 0
        },
        {
            "buffer" : 0,
            "byteLength" : 144,
            "byteOffset" : 144
        },
        {
            "buffer" : 0,
            "byteLength" : 96,
            "byteOffset" : 288
        },
        {
            "buffer" : 0,
            "byteLength" : 36,
            "byteOffset" : 384
        },
        {
            "buffer" : 0,
            "byteLength" : 9000,
            "byteOffset" : 420
        },
        {
            "buffer" : 0,
            "byteLength" : 9000,
            "byteOffset" : 9420
        },
        {
            "buffer" : 0,
            "byteLength" : 6000,
            "byteOffset" : 18420
        },
        {
            "buffer" : 0,
            "byteLength" : 2124,
            "byteOffset" : 24420
        },
        {
            "buffer" : 0,
            "byteLength" : 5064,
            "byteOffset" : 26544
        },
        {
            "buffer" : 0,
            "byteLength" : 5064,
            "byteOffset" : 31608
        },
        {
            "buffer" : 0,
            "byteLength" : 3376,
            "byteOffset" : 36672
        },
        {
            "buffer" : 0,
            "byteLength" : 1212,
            "byteOffset" : 40048
        }
    ],
    "samplers" : [
        {
            "magFilter" : 9729,
            "minFilter" : 9986
        }
    ],
    "buffers" : [
        {
            "byteLength" : 41260,
            "uri" : "qcube.bin"
        }
    ]
}
